<svg xmlns="http://www.w3.org/2000/svg" xmlns:xlink="http://www.w3.org/1999/xlink" contentStyleType="text/css" height="554px" preserveAspectRatio="none" style="width:173px;height:554px;background:#FFFFFF;" version="1.1" viewBox="0 0 173 554" width="173px" zoomAndPan="magnify"><defs/><g><ellipse cx="81" cy="16" fill="#222222" rx="10" ry="10" style="stroke:#222222;stroke-width:1.0;"/><g id="SinAcceso"><rect fill="#F1F1F1" height="50" rx="12.5" ry="12.5" style="stroke:#181818;stroke-width:0.5;" width="91.0938" x="35.5" y="86"/><line style="stroke:#181818;stroke-width:0.5;" x1="35.5" x2="126.5938" y1="112.2969" y2="112.2969"/><text fill="#000000" font-family="sans-serif" font-size="14" lengthAdjust="spacing" textLength="71.0938" x="45.5" y="103.9951">SinAcceso</text></g><g id="InicioDeSesion"><rect fill="#F1F1F1" height="50" rx="12.5" ry="12.5" style="stroke:#181818;stroke-width:0.5;" width="122.5596" x="19.5" y="306"/><line style="stroke:#181818;stroke-width:0.5;" x1="19.5" x2="142.0596" y1="332.2969" y2="332.2969"/><text fill="#000000" font-family="sans-serif" font-size="14" lengthAdjust="spacing" textLength="102.5596" x="29.5" y="323.9951">InicioDeSesion</text></g><g id="Registro"><rect fill="#F1F1F1" height="50" rx="12.5" ry="12.5" style="stroke:#181818;stroke-width:0.5;" width="78.2217" x="88" y="196"/><line style="stroke:#181818;stroke-width:0.5;" x1="88" x2="166.2217" y1="222.2969" y2="222.2969"/><text fill="#000000" font-family="sans-serif" font-size="14" lengthAdjust="spacing" textLength="58.2217" x="98" y="213.9951">Registro</text></g><g id="AccesoContenidos"><rect fill="#F1F1F1" height="50" rx="12.5" ry="12.5" style="stroke:#181818;stroke-width:0.5;" width="148.2695" x="7" y="416"/><line style="stroke:#181818;stroke-width:0.5;" x1="7" x2="155.2695" y1="442.2969" y2="442.2969"/><text fill="#000000" font-family="sans-serif" font-size="14" lengthAdjust="spacing" textLength="128.2695" x="17" y="433.9951">AccesoContenidos</text></g><ellipse cx="81" cy="537" fill="none" rx="11" ry="11" style="stroke:#222222;stroke-width:1.0;"/><ellipse cx="81" cy="537" fill="#222222" rx="6" ry="6" style="stroke:#222222;stroke-width:1.0;"/><!--link *start* to SinAcceso--><g id="link_*start*_SinAcceso"><path d="M81,26.26 C81,40.04 81,60.42 81,79.91 " fill="none" id="*start*-to-SinAcceso" style="stroke:#181818;stroke-width:1.0;"/><polygon fill="#181818" points="81,85.91,85,76.91,81,80.91,77,76.91,81,85.91" style="stroke:#181818;stroke-width:1.0;"/></g><!--link SinAcceso to InicioDeSesion--><g id="link_SinAcceso_InicioDeSesion"><path d="M76.98,136.18 C74.41,152.92 71.32,175.75 70,196 C68.55,218.18 68.55,223.82 70,246 C71.32,266.25 73.4995,283.1495 76.0695,299.8895 " fill="none" id="SinAcceso-to-InicioDeSesion" style="stroke:#181818;stroke-width:1.0;"/><polygon fill="#181818" points="76.98,305.82,79.568,296.3172,76.2213,300.8779,71.6606,297.5312,76.98,305.82" style="stroke:#181818;stroke-width:1.0;"/></g><!--link SinAcceso to Registro--><g id="link_SinAcceso_Registro"><path d="M91.32,136.24 C98.9,154.02 106.7874,172.5605 114.3574,190.3205 " fill="none" id="SinAcceso-to-Registro" style="stroke:#181818;stroke-width:1.0;"/><polygon fill="#181818" points="116.71,195.84,116.8607,185.9923,114.7495,191.2404,109.5014,189.1291,116.71,195.84" style="stroke:#181818;stroke-width:1.0;"/></g><!--link Registro to InicioDeSesion--><g id="link_Registro_InicioDeSesion"><path d="M116.68,246.24 C109.1,264.02 101.2126,282.5605 93.6426,300.3205 " fill="none" id="Registro-to-InicioDeSesion" style="stroke:#181818;stroke-width:1.0;"/><polygon fill="#181818" points="91.29,305.84,98.4986,299.1291,93.2505,301.2404,91.1393,295.9923,91.29,305.84" style="stroke:#181818;stroke-width:1.0;"/></g><!--link InicioDeSesion to AccesoContenidos--><g id="link_InicioDeSesion_AccesoContenidos"><path d="M81,356.24 C81,374.02 81,392.08 81,409.84 " fill="none" id="InicioDeSesion-to-AccesoContenidos" style="stroke:#181818;stroke-width:1.0;"/><polygon fill="#181818" points="81,415.84,85,406.84,81,410.84,77,406.84,81,415.84" style="stroke:#181818;stroke-width:1.0;"/></g><!--link AccesoContenidos to *end*--><g id="link_AccesoContenidos_*end*"><path d="M81,466.21 C81,485.57 81,505.75 81,519.9 " fill="none" id="AccesoContenidos-to-*end*" style="stroke:#181818;stroke-width:1.0;"/><polygon fill="#181818" points="81,525.9,85,516.9,81,520.9,77,516.9,81,525.9" style="stroke:#181818;stroke-width:1.0;"/></g><!--SRC=[YzQALT3LjLC8pinpJ4vEBSvNuE92i44oddcPoPdvBgd1gSMP-Nbeaa6fwPd59KNvN306DYseNB0AY17E-NabgNcPAVd5NEW2O5NHMh40]--></g></svg>