<svg xmlns="http://www.w3.org/2000/svg" xmlns:xlink="http://www.w3.org/1999/xlink" contentStyleType="text/css" height="765px" preserveAspectRatio="none" style="width:973px;height:765px;background:#FFFFFF;" version="1.1" viewBox="0 0 973 765" width="973px" zoomAndPan="magnify"><defs/><g><g id="elem_video1"><rect fill="#F1F1F1" height="77.1875" style="stroke:#181818;stroke-width:0.5;" width="176.7734" x="442" y="511"/><text fill="#000000" font-family="sans-serif" font-size="14" lengthAdjust="spacing" textLength="47.1475" x="506.813" y="525.9951">video1</text><line style="stroke:#181818;stroke-width:0.5;" x1="443" x2="617.7734" y1="531.2969" y2="531.2969"/><text fill="#000000" font-family="sans-serif" font-size="14" lengthAdjust="spacing" textLength="131.9199" x="448" y="548.292">nombre = "Matrix"</text><text fill="#000000" font-family="sans-serif" font-size="14" lengthAdjust="spacing" textLength="164.7734" x="448" y="564.5889">tipo = "Ciencia Ficci&#243;n"</text><text fill="#000000" font-family="sans-serif" font-size="14" lengthAdjust="spacing" textLength="105.2256" x="448" y="580.8857">calidad = "HD"</text></g><g id="elem_perfil1"><rect fill="#F1F1F1" height="44.5938" style="stroke:#181818;stroke-width:0.5;" width="161.9531" x="696.5" y="145"/><text fill="#000000" font-family="sans-serif" font-size="14" lengthAdjust="spacing" textLength="44.8711" x="755.041" y="159.9951">perfil1</text><line style="stroke:#181818;stroke-width:0.5;" x1="697.5" x2="857.4531" y1="165.2969" y2="165.2969"/><text fill="#000000" font-family="sans-serif" font-size="14" lengthAdjust="spacing" textLength="149.9531" x="702.5" y="182.292">nombre = "Usuario1"</text></g><g id="elem_inicioSesion1"><rect fill="#F1F1F1" height="60.8906" style="stroke:#181818;stroke-width:0.5;" width="260.0557" x="647.5" y="7"/><text fill="#000000" font-family="sans-serif" font-size="14" lengthAdjust="spacing" textLength="91.834" x="731.6108" y="21.9951">inicioSesion1</text><line style="stroke:#181818;stroke-width:0.5;" x1="648.5" x2="906.5557" y1="27.2969" y2="27.2969"/><text fill="#000000" font-family="sans-serif" font-size="14" lengthAdjust="spacing" textLength="248.0557" x="653.5" y="44.292">correo = "usuario1@example.com"</text><text fill="#000000" font-family="sans-serif" font-size="14" lengthAdjust="spacing" textLength="156.3652" x="653.5" y="60.5889">contrase&#241;a = "12345"</text></g><g id="elem_paginaPrincipal1"><rect fill="#F1F1F1" height="44.5938" style="stroke:#181818;stroke-width:0.5;" width="328.9209" x="411" y="267"/><text fill="#000000" font-family="sans-serif" font-size="14" lengthAdjust="spacing" textLength="116.5049" x="517.208" y="281.9951">paginaPrincipal1</text><line style="stroke:#181818;stroke-width:0.5;" x1="412" x2="738.9209" y1="287.2969" y2="287.2969"/><text fill="#000000" font-family="sans-serif" font-size="14" lengthAdjust="spacing" textLength="316.9209" x="417" y="304.292">categorias = ["Acci&#243;n", "Drama", "Comedia"]</text></g><g id="elem_buscador1"><rect fill="#F1F1F1" height="44.5938" style="stroke:#181818;stroke-width:0.5;" width="247.2725" x="7" y="389"/><text fill="#000000" font-family="sans-serif" font-size="14" lengthAdjust="spacing" textLength="73.4453" x="93.9136" y="403.9951">buscador1</text><line style="stroke:#181818;stroke-width:0.5;" x1="8" x2="253.2725" y1="409.2969" y2="409.2969"/><text fill="#000000" font-family="sans-serif" font-size="14" lengthAdjust="spacing" textLength="235.2725" x="13" y="426.292">busqueda = "Pel&#237;culas de acci&#243;n"</text></g><g id="elem_miLista1"><rect fill="#F1F1F1" height="44.5938" style="stroke:#181818;stroke-width:0.5;" width="216.4492" x="289.5" y="389"/><text fill="#000000" font-family="sans-serif" font-size="14" lengthAdjust="spacing" textLength="59.4863" x="367.9814" y="403.9951">miLista1</text><line style="stroke:#181818;stroke-width:0.5;" x1="290.5" x2="504.9492" y1="409.2969" y2="409.2969"/><text fill="#000000" font-family="sans-serif" font-size="14" lengthAdjust="spacing" textLength="204.4492" x="295.5" y="426.292">lista = ["Matrix", "Inception"]</text></g><g id="elem_suscripcion1"><rect fill="#F1F1F1" height="44.5938" style="stroke:#181818;stroke-width:0.5;" width="138.5879" x="804" y="527"/><text fill="#000000" font-family="sans-serif" font-size="14" lengthAdjust="spacing" textLength="87.623" x="829.4824" y="541.9951">suscripcion1</text><line style="stroke:#181818;stroke-width:0.5;" x1="805" x2="941.5879" y1="547.2969" y2="547.2969"/><text fill="#000000" font-family="sans-serif" font-size="14" lengthAdjust="spacing" textLength="126.5879" x="810" y="564.292">plan = "Premium"</text></g><g id="elem_pistaAudio1"><rect fill="#F1F1F1" height="44.5938" style="stroke:#181818;stroke-width:0.5;" width="147.8916" x="362.5" y="689"/><text fill="#000000" font-family="sans-serif" font-size="14" lengthAdjust="spacing" textLength="82.8379" x="395.0269" y="703.9951">pistaAudio1</text><line style="stroke:#181818;stroke-width:0.5;" x1="363.5" x2="509.3916" y1="709.2969" y2="709.2969"/><text fill="#000000" font-family="sans-serif" font-size="14" lengthAdjust="spacing" textLength="135.8916" x="368.5" y="726.292">idioma = "Espa&#241;ol"</text></g><g id="elem_subtitulos1"><rect fill="#F1F1F1" height="93.4844" style="stroke:#181818;stroke-width:0.5;" width="158.7197" x="546" y="665"/><text fill="#000000" font-family="sans-serif" font-size="14" lengthAdjust="spacing" textLength="77.4512" x="586.6343" y="679.9951">subtitulos1</text><line style="stroke:#181818;stroke-width:0.5;" x1="547" x2="703.7197" y1="685.2969" y2="685.2969"/><text fill="#000000" font-family="sans-serif" font-size="14" lengthAdjust="spacing" textLength="122.6436" x="552" y="702.292">idioma = "Ingl&#233;s"</text><text fill="#000000" font-family="sans-serif" font-size="14" lengthAdjust="spacing" textLength="115.1924" x="552" y="718.5889">color = "Blanco"</text><text fill="#000000" font-family="sans-serif" font-size="14" lengthAdjust="spacing" textLength="146.7197" x="552" y="734.8857">tama&#241;o = "Mediano"</text><text fill="#000000" font-family="sans-serif" font-size="14" lengthAdjust="spacing" textLength="110.5918" x="552" y="751.1826">fuente = "Arial"</text></g><g id="elem_streaming1"><rect fill="#F1F1F1" height="44.5938" style="stroke:#181818;stroke-width:0.5;" width="255.7832" x="670.5" y="389"/><text fill="#000000" font-family="sans-serif" font-size="14" lengthAdjust="spacing" textLength="79.9258" x="758.4287" y="403.9951">streaming1</text><line style="stroke:#181818;stroke-width:0.5;" x1="671.5" x2="925.2832" y1="409.2969" y2="409.2969"/><text fill="#000000" font-family="sans-serif" font-size="14" lengthAdjust="spacing" textLength="243.7832" x="676.5" y="426.292">categorias = ["Pel&#237;culas", "Series"]</text></g><!--link inicioSesion1 to perfil1--><g id="link_inicioSesion1_perfil1"><path codeLine="47" d="M777.5,68.19 C777.5,91.67 777.5,117.91 777.5,138.97 " fill="none" id="inicioSesion1-to-perfil1" style="stroke:#181818;stroke-width:1.0;"/><polygon fill="#181818" points="777.5,144.97,781.5,135.97,777.5,139.97,773.5,135.97,777.5,144.97" style="stroke:#181818;stroke-width:1.0;"/><text fill="#000000" font-family="sans-serif" font-size="13" lengthAdjust="spacing" textLength="79.6694" x="778.5" y="111.0669">inicia sesi&#243;n</text></g><!--link perfil1 to suscripcion1--><g id="link_perfil1_suscripcion1"><path codeLine="48" d="M801.92,190.28 C840.82,226.79 915.32,304.7 943.5,389 C960.47,439.76 924.4465,492.0519 898.1665,522.2819 " fill="none" id="perfil1-to-suscripcion1" style="stroke:#181818;stroke-width:1.0;"/><polygon fill="#181818" points="894.23,526.81,903.1535,522.6421,897.5104,523.0365,897.116,517.3935,894.23,526.81" style="stroke:#181818;stroke-width:1.0;"/><text fill="#000000" font-family="sans-serif" font-size="13" lengthAdjust="spacing" textLength="32.9443" x="932.5" y="355.0669">tiene</text></g><!--link perfil1 to paginaPrincipal1--><g id="link_perfil1_paginaPrincipal1"><path codeLine="49" d="M740.92,190.23 C704.31,211.98 653.4784,242.1755 616.9684,263.8655 " fill="none" id="perfil1-to-paginaPrincipal1" style="stroke:#181818;stroke-width:1.0;"/><polygon fill="#181818" points="611.81,266.93,621.5906,265.7722,616.1086,264.3762,617.5046,258.8943,611.81,266.93" style="stroke:#181818;stroke-width:1.0;"/><text fill="#000000" font-family="sans-serif" font-size="13" lengthAdjust="spacing" textLength="46.5093" x="690.5" y="233.0669">accede</text></g><!--link paginaPrincipal1 to video1--><g id="link_paginaPrincipal1_video1"><path codeLine="50" d="M571.74,312.05 C564.09,355.89 547.67,450.0291 538.11,504.8891 " fill="none" id="paginaPrincipal1-to-video1" style="stroke:#181818;stroke-width:1.0;"/><polygon fill="#181818" points="537.08,510.8,542.5657,502.6203,537.9384,505.8742,534.6845,501.2469,537.08,510.8" style="stroke:#181818;stroke-width:1.0;"/><text fill="#000000" font-family="sans-serif" font-size="13" lengthAdjust="spacing" textLength="58.6079" x="559.5" y="416.0669">accede a</text></g><!--link paginaPrincipal1 to buscador1--><g id="link_paginaPrincipal1_buscador1"><path codeLine="51" d="M495.69,312.02 C415.02,333.77 296.8832,365.6384 216.1932,387.3884 " fill="none" id="paginaPrincipal1-to-buscador1" style="stroke:#181818;stroke-width:1.0;"/><polygon fill="#181818" points="210.4,388.95,220.1309,390.4698,215.2277,387.6487,218.0488,382.7455,210.4,388.95" style="stroke:#181818;stroke-width:1.0;"/><text fill="#000000" font-family="sans-serif" font-size="13" lengthAdjust="spacing" textLength="38.9619" x="381.5" y="355.0669">utiliza</text></g><!--link paginaPrincipal1 to miLista1--><g id="link_paginaPrincipal1_miLista1"><path codeLine="52" d="M543.27,312.23 C511.01,333.98 466.6453,363.8865 434.4653,385.5765 " fill="none" id="paginaPrincipal1-to-miLista1" style="stroke:#181818;stroke-width:1.0;"/><polygon fill="#181818" points="429.49,388.93,439.1887,387.2167,433.6361,386.1354,434.7174,380.5829,429.49,388.93" style="stroke:#181818;stroke-width:1.0;"/><text fill="#000000" font-family="sans-serif" font-size="13" lengthAdjust="spacing" textLength="38.9619" x="498.5" y="355.0669">utiliza</text></g><!--link paginaPrincipal1 to streaming1--><g id="link_paginaPrincipal1_streaming1"><path codeLine="53" d="M615.63,312.09 C656,333.82 712.6364,364.2968 753.0364,386.0368 " fill="none" id="paginaPrincipal1-to-streaming1" style="stroke:#181818;stroke-width:1.0;"/><polygon fill="#181818" points="758.32,388.88,752.2901,381.0928,753.917,386.5107,748.4992,388.1376,758.32,388.88" style="stroke:#181818;stroke-width:1.0;"/><text fill="#000000" font-family="sans-serif" font-size="13" lengthAdjust="spacing" textLength="32.9443" x="701.5" y="355.0669">tiene</text></g><!--link video1 to pistaAudio1--><g id="link_video1_pistaAudio1"><path codeLine="54" d="M508.46,588.01 C490.01,619.42 464.33,663.13 449.16,688.95 " fill="none" id="video1-pistaAudio1" style="stroke:#181818;stroke-width:1.0;"/><text fill="#000000" font-family="sans-serif" font-size="13" lengthAdjust="spacing" textLength="32.9443" x="490.5" y="631.0669">tiene</text></g><!--link video1 to subtitulos1--><g id="link_video1_subtitulos1"><path codeLine="55" d="M552.77,588.01 C566.43,611.01 584,640.61 598.46,664.95 " fill="none" id="video1-subtitulos1" style="stroke:#181818;stroke-width:1.0;"/><text fill="#000000" font-family="sans-serif" font-size="13" lengthAdjust="spacing" textLength="32.9443" x="579.5" y="631.0669">tiene</text></g><!--link video1 to suscripcion1--><g id="link_video1_suscripcion1"><path codeLine="56" d="M619.26,549.5 C680.84,549.5 736.41,549.5 797.98,549.5 " fill="none" id="video1-to-suscripcion1" style="stroke:#181818;stroke-width:1.0;"/><polygon fill="#181818" points="803.98,549.5,794.98,545.5,798.98,549.5,794.98,553.5,803.98,549.5" style="stroke:#181818;stroke-width:1.0;"/></g><!--link buscador1 to video1--><g id="link_buscador1_video1"><path codeLine="57" d="M193.88,434.05 C260.74,456.78 360.9394,490.8484 436.0794,516.3984 " fill="none" id="buscador1-to-video1" style="stroke:#181818;stroke-width:1.0;"/><polygon fill="#181818" points="441.76,518.33,434.5268,511.6456,437.0262,516.7204,431.9514,519.2197,441.76,518.33" style="stroke:#181818;stroke-width:1.0;"/><text fill="#000000" font-family="sans-serif" font-size="13" lengthAdjust="spacing" textLength="66.2695" x="331.5" y="477.0669">encuentra</text></g><!--link miLista1 to video1--><g id="link_miLista1_video1"><path codeLine="58" d="M418.57,434.05 C438.72,454.65 465.3144,481.8508 489.5044,506.5808 " fill="none" id="miLista1-to-video1" style="stroke:#181818;stroke-width:1.0;"/><polygon fill="#181818" points="493.7,510.87,490.2661,501.6391,490.2037,507.2957,484.5472,507.2332,493.7,510.87" style="stroke:#181818;stroke-width:1.0;"/><text fill="#000000" font-family="sans-serif" font-size="13" lengthAdjust="spacing" textLength="56.2847" x="465.5" y="477.0669">contiene</text></g><!--SRC=[XLFBRXGn4BpFLrXpPf6Mm6Kb44i28X98aI9EY4EltLbrPBi7Fr04ueCuS8ZuXFansfxPXpT1t3pkSbLtTGrlRb4dzOqCybBzw9Jox3O1rKlLVuGKwAwNkqG3bvjpGgy9r3lIciO_ljGqM39WIldzHT_zx3gUE0SCDsHFIJ_5385uUOmaJvhu6YEnd_2QGy0gcMVyQxm3DrXygjbLMVOfGCJn7Wfi-Upi-Oj67RRauIgGD3p0t8Q6X5iE157UVExNynHFL7yHm44vdBD3Gz1_EUBQvAZ1S9X8vEjhHbDbhz2EltMsGcXGmSwLmrD77oWcc5xQSgpAixMYT-ar3aa6RnIZA0OQzDwGmOAlWW4TPTTCMbZNsT2yG9AJgzszZGECzspxXdcJA6NByHHzwRTs_1KdSos7SlT6P3NN28W_mbLpKGpozVOceqzrhsjnjHLA0S6Htpvg_S6uOi8r1i8uET26OR5ujG_IQWeAg2X5yRdR5GgeSMmbYKMF3U1185PbNsW4TLefyFcFs84KF0uxH6EbSY9Bt_y1t0VXFxWZstPJpAqi5isg7rQFLtjQRGtg3cqtiyhVNHOQeDktszJBJrTe_m80]--></g></svg>