<svg xmlns="http://www.w3.org/2000/svg" xmlns:xlink="http://www.w3.org/1999/xlink" contentStyleType="text/css" height="882px" preserveAspectRatio="none" style="width:582px;height:882px;background:#FFFFFF;" version="1.1" viewBox="0 0 582 882" width="582px" zoomAndPan="magnify"><defs/><g><!--class Video--><g id="elem_Video"><rect codeLine="1" fill="#F1F1F1" height="96.8906" id="Video" rx="2.5" ry="2.5" style="stroke:#181818;stroke-width:0.5;" width="80.332" x="267.5" y="588"/><ellipse cx="286.4599" cy="604" fill="#ADD1B2" rx="11" ry="11" style="stroke:#181818;stroke-width:1.0;"/><path d="M289.4287,609.6406 Q288.8505,609.9375 288.2099,610.0781 Q287.5693,610.2344 286.8662,610.2344 Q284.3662,610.2344 283.038,608.5938 Q281.7255,606.9375 281.7255,603.8125 Q281.7255,600.6875 283.038,599.0313 Q284.3662,597.375 286.8662,597.375 Q287.5693,597.375 288.2099,597.5313 Q288.8662,597.6875 289.4287,597.9844 L289.4287,600.7031 Q288.8037,600.125 288.2099,599.8594 Q287.6162,599.5781 286.9912,599.5781 Q285.6474,599.5781 284.9599,600.6563 Q284.2724,601.7188 284.2724,603.8125 Q284.2724,605.9063 284.9599,606.9844 Q285.6474,608.0469 286.9912,608.0469 Q287.6162,608.0469 288.2099,607.7813 Q288.8037,607.5 289.4287,606.9219 L289.4287,609.6406 Z " fill="#000000"/><text fill="#000000" font-family="sans-serif" font-size="14" lengthAdjust="spacing" textLength="39.5322" x="301.3399" y="608.8467">Video</text><line style="stroke:#181818;stroke-width:0.5;" x1="268.5" x2="346.832" y1="620" y2="620"/><rect fill="none" height="6" style="stroke:#C82930;stroke-width:1.0;" width="6" x="275.5" y="630.6484"/><text fill="#000000" font-family="sans-serif" font-size="14" lengthAdjust="spacing" textLength="54.332" x="287.5" y="636.9951">nombre</text><rect fill="none" height="6" style="stroke:#C82930;stroke-width:1.0;" width="6" x="275.5" y="646.9453"/><text fill="#000000" font-family="sans-serif" font-size="14" lengthAdjust="spacing" textLength="26.8311" x="287.5" y="653.292">tipo</text><rect fill="none" height="6" style="stroke:#C82930;stroke-width:1.0;" width="6" x="275.5" y="663.2422"/><text fill="#000000" font-family="sans-serif" font-size="14" lengthAdjust="spacing" textLength="50.4082" x="287.5" y="669.5889">calidad</text><line style="stroke:#181818;stroke-width:0.5;" x1="268.5" x2="346.832" y1="676.8906" y2="676.8906"/></g><!--class Perfil--><g id="elem_Perfil"><rect codeLine="7" fill="#F1F1F1" height="64.2969" id="Perfil" rx="2.5" ry="2.5" style="stroke:#181818;stroke-width:0.5;" width="80.332" x="385.5" y="165"/><ellipse cx="406.2656" cy="181" fill="#ADD1B2" rx="11" ry="11" style="stroke:#181818;stroke-width:1.0;"/><path d="M409.2344,186.6406 Q408.6563,186.9375 408.0156,187.0781 Q407.375,187.2344 406.6719,187.2344 Q404.1719,187.2344 402.8438,185.5938 Q401.5313,183.9375 401.5313,180.8125 Q401.5313,177.6875 402.8438,176.0313 Q404.1719,174.375 406.6719,174.375 Q407.375,174.375 408.0156,174.5313 Q408.6719,174.6875 409.2344,174.9844 L409.2344,177.7031 Q408.6094,177.125 408.0156,176.8594 Q407.4219,176.5781 406.7969,176.5781 Q405.4531,176.5781 404.7656,177.6563 Q404.0781,178.7188 404.0781,180.8125 Q404.0781,182.9063 404.7656,183.9844 Q405.4531,185.0469 406.7969,185.0469 Q407.4219,185.0469 408.0156,184.7813 Q408.6094,184.5 409.2344,183.9219 L409.2344,186.6406 Z " fill="#000000"/><text fill="#000000" font-family="sans-serif" font-size="14" lengthAdjust="spacing" textLength="35.5195" x="421.5469" y="185.8467">Perfil</text><line style="stroke:#181818;stroke-width:0.5;" x1="386.5" x2="464.832" y1="197" y2="197"/><rect fill="none" height="6" style="stroke:#C82930;stroke-width:1.0;" width="6" x="393.5" y="207.6484"/><text fill="#000000" font-family="sans-serif" font-size="14" lengthAdjust="spacing" textLength="54.332" x="405.5" y="213.9951">nombre</text><line style="stroke:#181818;stroke-width:0.5;" x1="386.5" x2="464.832" y1="221.2969" y2="221.2969"/></g><!--class InicioDeSesion--><g id="elem_InicioDeSesion"><rect codeLine="11" fill="#F1F1F1" height="80.5938" id="InicioDeSesion" rx="2.5" ry="2.5" style="stroke:#181818;stroke-width:0.5;" width="134.5596" x="358" y="7"/><ellipse cx="373" cy="23" fill="#ADD1B2" rx="11" ry="11" style="stroke:#181818;stroke-width:1.0;"/><path d="M375.9688,28.6406 Q375.3906,28.9375 374.75,29.0781 Q374.1094,29.2344 373.4063,29.2344 Q370.9063,29.2344 369.5781,27.5938 Q368.2656,25.9375 368.2656,22.8125 Q368.2656,19.6875 369.5781,18.0313 Q370.9063,16.375 373.4063,16.375 Q374.1094,16.375 374.75,16.5313 Q375.4063,16.6875 375.9688,16.9844 L375.9688,19.7031 Q375.3438,19.125 374.75,18.8594 Q374.1563,18.5781 373.5313,18.5781 Q372.1875,18.5781 371.5,19.6563 Q370.8125,20.7188 370.8125,22.8125 Q370.8125,24.9063 371.5,25.9844 Q372.1875,27.0469 373.5313,27.0469 Q374.1563,27.0469 374.75,26.7813 Q375.3438,26.5 375.9688,25.9219 L375.9688,28.6406 Z " fill="#000000"/><text fill="#000000" font-family="sans-serif" font-size="14" lengthAdjust="spacing" textLength="102.5596" x="387" y="27.8467">InicioDeSesion</text><line style="stroke:#181818;stroke-width:0.5;" x1="359" x2="491.5596" y1="39" y2="39"/><rect fill="none" height="6" style="stroke:#C82930;stroke-width:1.0;" width="6" x="366" y="49.6484"/><text fill="#000000" font-family="sans-serif" font-size="14" lengthAdjust="spacing" textLength="44.9531" x="378" y="55.9951">correo</text><rect fill="none" height="6" style="stroke:#C82930;stroke-width:1.0;" width="6" x="366" y="65.9453"/><text fill="#000000" font-family="sans-serif" font-size="14" lengthAdjust="spacing" textLength="78.3193" x="378" y="72.292">contrase&#241;a</text><line style="stroke:#181818;stroke-width:0.5;" x1="359" x2="491.5596" y1="79.5938" y2="79.5938"/></g><!--class PaginaPrincipal--><g id="elem_PaginaPrincipal"><rect codeLine="16" fill="#F1F1F1" height="64.2969" id="PaginaPrincipal" rx="2.5" ry="2.5" style="stroke:#181818;stroke-width:0.5;" width="139.1533" x="238" y="306"/><ellipse cx="253" cy="322" fill="#ADD1B2" rx="11" ry="11" style="stroke:#181818;stroke-width:1.0;"/><path d="M255.9688,327.6406 Q255.3906,327.9375 254.75,328.0781 Q254.1094,328.2344 253.4063,328.2344 Q250.9063,328.2344 249.5781,326.5938 Q248.2656,324.9375 248.2656,321.8125 Q248.2656,318.6875 249.5781,317.0313 Q250.9063,315.375 253.4063,315.375 Q254.1094,315.375 254.75,315.5313 Q255.4063,315.6875 255.9688,315.9844 L255.9688,318.7031 Q255.3438,318.125 254.75,317.8594 Q254.1563,317.5781 253.5313,317.5781 Q252.1875,317.5781 251.5,318.6563 Q250.8125,319.7188 250.8125,321.8125 Q250.8125,323.9063 251.5,324.9844 Q252.1875,326.0469 253.5313,326.0469 Q254.1563,326.0469 254.75,325.7813 Q255.3438,325.5 255.9688,324.9219 L255.9688,327.6406 Z " fill="#000000"/><text fill="#000000" font-family="sans-serif" font-size="14" lengthAdjust="spacing" textLength="107.1533" x="267" y="326.8467">PaginaPrincipal</text><line style="stroke:#181818;stroke-width:0.5;" x1="239" x2="376.1533" y1="338" y2="338"/><rect fill="none" height="6" style="stroke:#C82930;stroke-width:1.0;" width="6" x="246" y="348.6484"/><text fill="#000000" font-family="sans-serif" font-size="14" lengthAdjust="spacing" textLength="73.3496" x="258" y="354.9951">categorias</text><line style="stroke:#181818;stroke-width:0.5;" x1="239" x2="376.1533" y1="362.2969" y2="362.2969"/></g><!--class Buscador--><g id="elem_Buscador"><rect codeLine="20" fill="#F1F1F1" height="64.2969" id="Buscador" rx="2.5" ry="2.5" style="stroke:#181818;stroke-width:0.5;" width="97.2559" x="7" y="447"/><ellipse cx="22" cy="463" fill="#ADD1B2" rx="11" ry="11" style="stroke:#181818;stroke-width:1.0;"/><path d="M24.9688,468.6406 Q24.3906,468.9375 23.75,469.0781 Q23.1094,469.2344 22.4063,469.2344 Q19.9063,469.2344 18.5781,467.5938 Q17.2656,465.9375 17.2656,462.8125 Q17.2656,459.6875 18.5781,458.0313 Q19.9063,456.375 22.4063,456.375 Q23.1094,456.375 23.75,456.5313 Q24.4063,456.6875 24.9688,456.9844 L24.9688,459.7031 Q24.3438,459.125 23.75,458.8594 Q23.1563,458.5781 22.5313,458.5781 Q21.1875,458.5781 20.5,459.6563 Q19.8125,460.7188 19.8125,462.8125 Q19.8125,464.9063 20.5,465.9844 Q21.1875,467.0469 22.5313,467.0469 Q23.1563,467.0469 23.75,466.7813 Q24.3438,466.5 24.9688,465.9219 L24.9688,468.6406 Z " fill="#000000"/><text fill="#000000" font-family="sans-serif" font-size="14" lengthAdjust="spacing" textLength="65.2559" x="36" y="467.8467">Buscador</text><line style="stroke:#181818;stroke-width:0.5;" x1="8" x2="103.2559" y1="479" y2="479"/><rect fill="none" height="6" style="stroke:#C82930;stroke-width:1.0;" width="6" x="15" y="489.6484"/><text fill="#000000" font-family="sans-serif" font-size="14" lengthAdjust="spacing" textLength="68.8926" x="27" y="495.9951">busqueda</text><line style="stroke:#181818;stroke-width:0.5;" x1="8" x2="103.2559" y1="503.2969" y2="503.2969"/></g><!--class MiLista--><g id="elem_MiLista"><rect codeLine="24" fill="#F1F1F1" height="64.2969" id="MiLista" rx="2.5" ry="2.5" style="stroke:#181818;stroke-width:0.5;" width="81.0205" x="139" y="447"/><ellipse cx="154" cy="463" fill="#ADD1B2" rx="11" ry="11" style="stroke:#181818;stroke-width:1.0;"/><path d="M156.9688,468.6406 Q156.3906,468.9375 155.75,469.0781 Q155.1094,469.2344 154.4063,469.2344 Q151.9063,469.2344 150.5781,467.5938 Q149.2656,465.9375 149.2656,462.8125 Q149.2656,459.6875 150.5781,458.0313 Q151.9063,456.375 154.4063,456.375 Q155.1094,456.375 155.75,456.5313 Q156.4063,456.6875 156.9688,456.9844 L156.9688,459.7031 Q156.3438,459.125 155.75,458.8594 Q155.1563,458.5781 154.5313,458.5781 Q153.1875,458.5781 152.5,459.6563 Q151.8125,460.7188 151.8125,462.8125 Q151.8125,464.9063 152.5,465.9844 Q153.1875,467.0469 154.5313,467.0469 Q155.1563,467.0469 155.75,466.7813 Q156.3438,466.5 156.9688,465.9219 L156.9688,468.6406 Z " fill="#000000"/><text fill="#000000" font-family="sans-serif" font-size="14" lengthAdjust="spacing" textLength="49.0205" x="168" y="467.8467">MiLista</text><line style="stroke:#181818;stroke-width:0.5;" x1="140" x2="219.0205" y1="479" y2="479"/><rect fill="none" height="6" style="stroke:#C82930;stroke-width:1.0;" width="6" x="147" y="489.6484"/><text fill="#000000" font-family="sans-serif" font-size="14" lengthAdjust="spacing" textLength="29.1416" x="159" y="495.9951">lista</text><line style="stroke:#181818;stroke-width:0.5;" x1="140" x2="219.0205" y1="503.2969" y2="503.2969"/></g><!--class Suscripcion--><g id="elem_Suscripcion"><rect codeLine="28" fill="#F1F1F1" height="64.2969" id="Suscripcion" rx="2.5" ry="2.5" style="stroke:#181818;stroke-width:0.5;" width="112.3086" x="463.5" y="604.5"/><ellipse cx="478.5" cy="620.5" fill="#ADD1B2" rx="11" ry="11" style="stroke:#181818;stroke-width:1.0;"/><path d="M481.4688,626.1406 Q480.8906,626.4375 480.25,626.5781 Q479.6094,626.7344 478.9063,626.7344 Q476.4063,626.7344 475.0781,625.0938 Q473.7656,623.4375 473.7656,620.3125 Q473.7656,617.1875 475.0781,615.5313 Q476.4063,613.875 478.9063,613.875 Q479.6094,613.875 480.25,614.0313 Q480.9063,614.1875 481.4688,614.4844 L481.4688,617.2031 Q480.8438,616.625 480.25,616.3594 Q479.6563,616.0781 479.0313,616.0781 Q477.6875,616.0781 477,617.1563 Q476.3125,618.2188 476.3125,620.3125 Q476.3125,622.4063 477,623.4844 Q477.6875,624.5469 479.0313,624.5469 Q479.6563,624.5469 480.25,624.2813 Q480.8438,624 481.4688,623.4219 L481.4688,626.1406 Z " fill="#000000"/><text fill="#000000" font-family="sans-serif" font-size="14" lengthAdjust="spacing" textLength="80.3086" x="492.5" y="625.3467">Suscripcion</text><line style="stroke:#181818;stroke-width:0.5;" x1="464.5" x2="574.8086" y1="636.5" y2="636.5"/><rect fill="none" height="6" style="stroke:#C82930;stroke-width:1.0;" width="6" x="471.5" y="647.1484"/><text fill="#000000" font-family="sans-serif" font-size="14" lengthAdjust="spacing" textLength="30.2285" x="483.5" y="653.4951">plan</text><line style="stroke:#181818;stroke-width:0.5;" x1="464.5" x2="574.8086" y1="660.7969" y2="660.7969"/></g><!--class PistaDeAudio--><g id="elem_PistaDeAudio"><rect codeLine="32" fill="#F1F1F1" height="64.2969" id="PistaDeAudio" rx="2.5" ry="2.5" style="stroke:#181818;stroke-width:0.5;" width="124.8799" x="171" y="786.5"/><ellipse cx="186" cy="802.5" fill="#ADD1B2" rx="11" ry="11" style="stroke:#181818;stroke-width:1.0;"/><path d="M188.9688,808.1406 Q188.3906,808.4375 187.75,808.5781 Q187.1094,808.7344 186.4063,808.7344 Q183.9063,808.7344 182.5781,807.0938 Q181.2656,805.4375 181.2656,802.3125 Q181.2656,799.1875 182.5781,797.5313 Q183.9063,795.875 186.4063,795.875 Q187.1094,795.875 187.75,796.0313 Q188.4063,796.1875 188.9688,796.4844 L188.9688,799.2031 Q188.3438,798.625 187.75,798.3594 Q187.1563,798.0781 186.5313,798.0781 Q185.1875,798.0781 184.5,799.1563 Q183.8125,800.2188 183.8125,802.3125 Q183.8125,804.4063 184.5,805.4844 Q185.1875,806.5469 186.5313,806.5469 Q187.1563,806.5469 187.75,806.2813 Q188.3438,806 188.9688,805.4219 L188.9688,808.1406 Z " fill="#000000"/><text fill="#000000" font-family="sans-serif" font-size="14" lengthAdjust="spacing" textLength="92.8799" x="200" y="807.3467">PistaDeAudio</text><line style="stroke:#181818;stroke-width:0.5;" x1="172" x2="294.8799" y1="818.5" y2="818.5"/><rect fill="none" height="6" style="stroke:#C82930;stroke-width:1.0;" width="6" x="179" y="829.1484"/><text fill="#000000" font-family="sans-serif" font-size="14" lengthAdjust="spacing" textLength="47.4482" x="191" y="835.4951">idioma</text><line style="stroke:#181818;stroke-width:0.5;" x1="172" x2="294.8799" y1="842.7969" y2="842.7969"/></g><!--class Subtitulos--><g id="elem_Subtitulos"><rect codeLine="36" fill="#F1F1F1" height="113.1875" id="Subtitulos" rx="2.5" ry="2.5" style="stroke:#181818;stroke-width:0.5;" width="102.1367" x="331.5" y="762"/><ellipse cx="346.5" cy="778" fill="#ADD1B2" rx="11" ry="11" style="stroke:#181818;stroke-width:1.0;"/><path d="M349.4688,783.6406 Q348.8906,783.9375 348.25,784.0781 Q347.6094,784.2344 346.9063,784.2344 Q344.4063,784.2344 343.0781,782.5938 Q341.7656,780.9375 341.7656,777.8125 Q341.7656,774.6875 343.0781,773.0313 Q344.4063,771.375 346.9063,771.375 Q347.6094,771.375 348.25,771.5313 Q348.9063,771.6875 349.4688,771.9844 L349.4688,774.7031 Q348.8438,774.125 348.25,773.8594 Q347.6563,773.5781 347.0313,773.5781 Q345.6875,773.5781 345,774.6563 Q344.3125,775.7188 344.3125,777.8125 Q344.3125,779.9063 345,780.9844 Q345.6875,782.0469 347.0313,782.0469 Q347.6563,782.0469 348.25,781.7813 Q348.8438,781.5 349.4688,780.9219 L349.4688,783.6406 Z " fill="#000000"/><text fill="#000000" font-family="sans-serif" font-size="14" lengthAdjust="spacing" textLength="70.1367" x="360.5" y="782.8467">Subtitulos</text><line style="stroke:#181818;stroke-width:0.5;" x1="332.5" x2="432.6367" y1="794" y2="794"/><rect fill="none" height="6" style="stroke:#C82930;stroke-width:1.0;" width="6" x="339.5" y="804.6484"/><text fill="#000000" font-family="sans-serif" font-size="14" lengthAdjust="spacing" textLength="47.4482" x="351.5" y="810.9951">idioma</text><rect fill="none" height="6" style="stroke:#C82930;stroke-width:1.0;" width="6" x="339.5" y="820.9453"/><text fill="#000000" font-family="sans-serif" font-size="14" lengthAdjust="spacing" textLength="34.4736" x="351.5" y="827.292">color</text><rect fill="none" height="6" style="stroke:#C82930;stroke-width:1.0;" width="6" x="339.5" y="837.2422"/><text fill="#000000" font-family="sans-serif" font-size="14" lengthAdjust="spacing" textLength="53.7236" x="351.5" y="843.5889">tama&#241;o</text><rect fill="none" height="6" style="stroke:#C82930;stroke-width:1.0;" width="6" x="339.5" y="853.5391"/><text fill="#000000" font-family="sans-serif" font-size="14" lengthAdjust="spacing" textLength="45.3906" x="351.5" y="859.8857">fuente</text><line style="stroke:#181818;stroke-width:0.5;" x1="332.5" x2="432.6367" y1="867.1875" y2="867.1875"/></g><!--class Streaming--><g id="elem_Streaming"><rect codeLine="43" fill="#F1F1F1" height="64.2969" id="Streaming" rx="2.5" ry="2.5" style="stroke:#181818;stroke-width:0.5;" width="104.6113" x="255" y="447"/><ellipse cx="270" cy="463" fill="#ADD1B2" rx="11" ry="11" style="stroke:#181818;stroke-width:1.0;"/><path d="M272.9688,468.6406 Q272.3906,468.9375 271.75,469.0781 Q271.1094,469.2344 270.4063,469.2344 Q267.9063,469.2344 266.5781,467.5938 Q265.2656,465.9375 265.2656,462.8125 Q265.2656,459.6875 266.5781,458.0313 Q267.9063,456.375 270.4063,456.375 Q271.1094,456.375 271.75,456.5313 Q272.4063,456.6875 272.9688,456.9844 L272.9688,459.7031 Q272.3438,459.125 271.75,458.8594 Q271.1563,458.5781 270.5313,458.5781 Q269.1875,458.5781 268.5,459.6563 Q267.8125,460.7188 267.8125,462.8125 Q267.8125,464.9063 268.5,465.9844 Q269.1875,467.0469 270.5313,467.0469 Q271.1563,467.0469 271.75,466.7813 Q272.3438,466.5 272.9688,465.9219 L272.9688,468.6406 Z " fill="#000000"/><text fill="#000000" font-family="sans-serif" font-size="14" lengthAdjust="spacing" textLength="72.6113" x="284" y="467.8467">Streaming</text><line style="stroke:#181818;stroke-width:0.5;" x1="256" x2="358.6113" y1="479" y2="479"/><rect fill="none" height="6" style="stroke:#C82930;stroke-width:1.0;" width="6" x="263" y="489.6484"/><text fill="#000000" font-family="sans-serif" font-size="14" lengthAdjust="spacing" textLength="73.3496" x="275" y="495.9951">categorias</text><line style="stroke:#181818;stroke-width:0.5;" x1="256" x2="358.6113" y1="503.2969" y2="503.2969"/></g><!--link InicioDeSesion to Perfil--><g id="link_InicioDeSesion_Perfil"><path codeLine="47" d="M425.5,88.03 C425.5,112.09 425.5,136.4 425.5,158.78 " fill="none" id="InicioDeSesion-to-Perfil" style="stroke:#181818;stroke-width:1.0;"/><polygon fill="#181818" points="425.5,164.78,429.5,155.78,425.5,159.78,421.5,155.78,425.5,164.78" style="stroke:#181818;stroke-width:1.0;"/><text fill="#000000" font-family="sans-serif" font-size="13" lengthAdjust="spacing" textLength="79.6694" x="426.5" y="131.0669">inicia sesi&#243;n</text></g><!--link Streaming to Video--><g id="link_Streaming_Video"><path codeLine="48" d="M307.5,511.09 C307.5,533.07 307.5,556.95 307.5,581.91 " fill="none" id="Streaming-to-Video" style="stroke:#181818;stroke-width:1.0;"/><polygon fill="#181818" points="307.5,587.91,311.5,578.91,307.5,582.91,303.5,578.91,307.5,587.91" style="stroke:#181818;stroke-width:1.0;"/><text fill="#000000" font-family="sans-serif" font-size="13" lengthAdjust="spacing" textLength="58.6079" x="308.5" y="554.0669">accede a</text></g><!--link Perfil to Suscripcion--><g id="link_Perfil_Suscripcion"><path codeLine="49" d="M432.18,229.11 C449.47,309.54 494.209,517.814 511.529,598.384 " fill="none" id="Perfil-to-Suscripcion" style="stroke:#181818;stroke-width:1.0;"/><polygon fill="#181818" points="512.79,604.25,514.8092,594.6103,511.7392,599.3617,506.9878,596.2917,512.79,604.25" style="stroke:#181818;stroke-width:1.0;"/><text fill="#000000" font-family="sans-serif" font-size="13" lengthAdjust="spacing" textLength="32.9443" x="473.5" y="413.0669">tiene</text></g><!--link Perfil to PaginaPrincipal--><g id="link_Perfil_PaginaPrincipal"><path codeLine="50" d="M399.02,229.19 C379.58,252.09 357.1936,278.4664 337.7736,301.3364 " fill="none" id="Perfil-to-PaginaPrincipal" style="stroke:#181818;stroke-width:1.0;"/><polygon fill="#181818" points="333.89,305.91,342.7645,301.6387,337.1264,302.0987,336.6664,296.4606,333.89,305.91" style="stroke:#181818;stroke-width:1.0;"/><text fill="#000000" font-family="sans-serif" font-size="13" lengthAdjust="spacing" textLength="46.5093" x="375.5" y="272.0669">accede</text></g><!--link PaginaPrincipal to Video--><g id="link_PaginaPrincipal_Video"><path codeLine="51" d="M335.35,370.45 C351.31,390.74 369.67,418.56 377.5,447 C390.6,494.57 393.86,512.2 375.5,558 C369.3,573.45 362.6848,583.4683 351.6048,595.6083 " fill="none" id="PaginaPrincipal-to-Video" style="stroke:#181818;stroke-width:1.0;"/><polygon fill="#181818" points="347.56,600.04,356.5816,596.0889,350.9306,596.3469,350.6727,590.6959,347.56,600.04" style="stroke:#181818;stroke-width:1.0;"/><text fill="#000000" font-family="sans-serif" font-size="13" lengthAdjust="spacing" textLength="58.6079" x="389.5" y="483.5669">accede a</text></g><!--link PaginaPrincipal to Buscador--><g id="link_PaginaPrincipal_Buscador"><path codeLine="52" d="M245.08,370.16 C226.74,379.54 206.71,390 188.5,400 C160.22,415.52 134.2547,430.6394 109.2247,445.5494 " fill="none" id="PaginaPrincipal-to-Buscador" style="stroke:#181818;stroke-width:1.0;"/><polygon fill="#181818" points="104.07,448.62,113.8492,447.4506,108.3656,446.0612,109.755,440.5776,104.07,448.62" style="stroke:#181818;stroke-width:1.0;"/><text fill="#000000" font-family="sans-serif" font-size="13" lengthAdjust="spacing" textLength="38.9619" x="189.5" y="413.0669">utiliza</text></g><!--link PaginaPrincipal to MiLista--><g id="link_PaginaPrincipal_MiLista"><path codeLine="53" d="M278.77,370.19 C257.69,393.09 233.2544,419.6263 212.1944,442.4963 " fill="none" id="PaginaPrincipal-to-MiLista" style="stroke:#181818;stroke-width:1.0;"/><polygon fill="#181818" points="208.13,446.91,217.169,442.999,211.517,443.2319,211.2841,437.5799,208.13,446.91" style="stroke:#181818;stroke-width:1.0;"/><text fill="#000000" font-family="sans-serif" font-size="13" lengthAdjust="spacing" textLength="38.9619" x="252.5" y="413.0669">utiliza</text></g><!--link PaginaPrincipal to Streaming--><g id="link_PaginaPrincipal_Streaming"><path codeLine="54" d="M307.5,370.19 C307.5,393.09 307.5,418.04 307.5,440.91 " fill="none" id="PaginaPrincipal-to-Streaming" style="stroke:#181818;stroke-width:1.0;"/><polygon fill="#181818" points="307.5,446.91,311.5,437.91,307.5,441.91,303.5,437.91,307.5,446.91" style="stroke:#181818;stroke-width:1.0;"/><text fill="#000000" font-family="sans-serif" font-size="13" lengthAdjust="spacing" textLength="32.9443" x="308.5" y="413.0669">tiene</text></g><!--link Video to PistaDeAudio--><g id="link_Video_PistaDeAudio"><path codeLine="55" d="M287.86,685.26 C274.72,717.24 257.79,758.41 246.34,786.26 " fill="none" id="Video-PistaDeAudio" style="stroke:#181818;stroke-width:1.0;"/><text fill="#000000" font-family="sans-serif" font-size="13" lengthAdjust="spacing" textLength="32.9443" x="276.5" y="728.0669">tiene</text></g><!--link Video to Subtitulos--><g id="link_Video_Subtitulos"><path codeLine="56" d="M327.4,685.26 C337.21,708.8 349.09,737.33 359.31,761.85 " fill="none" id="Video-Subtitulos" style="stroke:#181818;stroke-width:1.0;"/><text fill="#000000" font-family="sans-serif" font-size="13" lengthAdjust="spacing" textLength="32.9443" x="346.5" y="728.0669">tiene</text></g><!--link Video to Suscripcion--><g id="link_Video_Suscripcion"><path codeLine="57" d="M347.87,636.5 C380.55,636.5 420.95,636.5 457.26,636.5 " fill="none" id="Video-to-Suscripcion" style="stroke:#181818;stroke-width:1.0;"/><polygon fill="#181818" points="463.26,636.5,454.26,632.5,458.26,636.5,454.26,640.5,463.26,636.5" style="stroke:#181818;stroke-width:1.0;"/><text fill="#000000" font-family="sans-serif" font-size="13" lengthAdjust="spacing" textLength="56.9893" x="377.5" y="629.5669">depende</text></g><!--link Buscador to Video--><g id="link_Buscador_Video"><path codeLine="58" d="M93.52,511.23 C112.5,526.18 136.13,543.85 158.5,558 C193.99,580.44 231.2927,599.5598 261.8627,614.2598 " fill="none" id="Buscador-to-Video" style="stroke:#181818;stroke-width:1.0;"/><polygon fill="#181818" points="267.27,616.86,260.8925,609.3549,262.7639,614.6932,257.4256,616.5646,267.27,616.86" style="stroke:#181818;stroke-width:1.0;"/><text fill="#000000" font-family="sans-serif" font-size="13" lengthAdjust="spacing" textLength="58.6079" x="159.5" y="554.0669">accede a</text></g><!--link MiLista to Video--><g id="link_MiLista_Video"><path codeLine="59" d="M202.7,511.11 C213.65,525.54 227.02,542.82 239.5,558 C248.37,568.79 254.1911,575.6727 263.5011,586.3227 " fill="none" id="MiLista-to-Video" style="stroke:#181818;stroke-width:1.0;"/><polygon fill="#181818" points="267.45,590.84,264.5381,581.4314,264.1592,587.0756,258.5151,586.6967,267.45,590.84" style="stroke:#181818;stroke-width:1.0;"/><text fill="#000000" font-family="sans-serif" font-size="13" lengthAdjust="spacing" textLength="58.6079" x="240.5" y="554.0669">accede a</text></g><!--SRC=[VL59QiGm4Bph5Vg0F-13864kWGG63BctfHxJ8BSSBPS9UTIG9_XZyIPRTankWgekrQ8CU2y_IAELNqBAGh9jQuVJCr1dfuS2Gngq-1P2JGTNT3So-uiLV6LIP2zOeIVB2qbPvt1HinmSUEmVa2b2GmnNHwoeWoIj861Z7O7Vc2_HAz3MBPGw-i-8EfDwfpVo0HRSZEyDh8PhHvtQd7K6EFCnqY_u73MbHcXujZk9Eb28nlezOSvch9lBWnRwnvpu5f53rb0L749Bt9p6FFHN54-fxrBIY87q0zJ_iDY4HjOyOob1ATGeGInd8vRdBeTbaJ67Z_Kd4N44plyv8QqpbJ86CdG_fwMn_cTjEPFtsKDHx0VxWsPR7R1Z9Hexv27mwliqQR9x1lu2]--></g></svg>