<svg xmlns="http://www.w3.org/2000/svg" xmlns:xlink="http://www.w3.org/1999/xlink" contentStyleType="text/css" height="775px" preserveAspectRatio="none" style="width:727px;height:775px;background:#FFFFFF;" version="1.1" viewBox="0 0 727 775" width="727px" zoomAndPan="magnify"><defs/><g><!--class InicioDeSesi?n--><g id="elem_InicioDeSesi&#243;n"><rect codeLine="1" fill="#F1F1F1" height="80.5938" id="InicioDeSesi&#243;n" rx="2.5" ry="2.5" style="stroke:#181818;stroke-width:0.5;" width="134.5596" x="302.5" y="7"/><ellipse cx="317.5" cy="23" fill="#ADD1B2" rx="11" ry="11" style="stroke:#181818;stroke-width:1.0;"/><path d="M320.4688,28.6406 Q319.8906,28.9375 319.25,29.0781 Q318.6094,29.2344 317.9063,29.2344 Q315.4063,29.2344 314.0781,27.5938 Q312.7656,25.9375 312.7656,22.8125 Q312.7656,19.6875 314.0781,18.0313 Q315.4063,16.375 317.9063,16.375 Q318.6094,16.375 319.25,16.5313 Q319.9063,16.6875 320.4688,16.9844 L320.4688,19.7031 Q319.8438,19.125 319.25,18.8594 Q318.6563,18.5781 318.0313,18.5781 Q316.6875,18.5781 316,19.6563 Q315.3125,20.7188 315.3125,22.8125 Q315.3125,24.9063 316,25.9844 Q316.6875,27.0469 318.0313,27.0469 Q318.6563,27.0469 319.25,26.7813 Q319.8438,26.5 320.4688,25.9219 L320.4688,28.6406 Z " fill="#000000"/><text fill="#000000" font-family="sans-serif" font-size="14" lengthAdjust="spacing" textLength="102.5596" x="331.5" y="27.8467">InicioDeSesi&#243;n</text><line style="stroke:#181818;stroke-width:0.5;" x1="303.5" x2="436.0596" y1="39" y2="39"/><text fill="#000000" font-family="sans-serif" font-size="14" lengthAdjust="spacing" textLength="44.9531" x="308.5" y="55.9951">correo</text><text fill="#000000" font-family="sans-serif" font-size="14" lengthAdjust="spacing" textLength="78.3193" x="308.5" y="72.292">contrase&#241;a</text><line style="stroke:#181818;stroke-width:0.5;" x1="303.5" x2="436.0596" y1="79.5938" y2="79.5938"/></g><!--class Usuario--><g id="elem_Usuario"><rect codeLine="6" fill="#F1F1F1" height="80.5938" id="Usuario" rx="2.5" ry="2.5" style="stroke:#181818;stroke-width:0.5;" width="119.0576" x="310.5" y="165"/><ellipse cx="340.7341" cy="181" fill="#ADD1B2" rx="11" ry="11" style="stroke:#181818;stroke-width:1.0;"/><path d="M343.7028,186.6406 Q343.1247,186.9375 342.4841,187.0781 Q341.8435,187.2344 341.1403,187.2344 Q338.6403,187.2344 337.3122,185.5938 Q335.9997,183.9375 335.9997,180.8125 Q335.9997,177.6875 337.3122,176.0313 Q338.6403,174.375 341.1403,174.375 Q341.8435,174.375 342.4841,174.5313 Q343.1403,174.6875 343.7028,174.9844 L343.7028,177.7031 Q343.0778,177.125 342.4841,176.8594 Q341.8903,176.5781 341.2653,176.5781 Q339.9216,176.5781 339.2341,177.6563 Q338.5466,178.7188 338.5466,180.8125 Q338.5466,182.9063 339.2341,183.9844 Q339.9216,185.0469 341.2653,185.0469 Q341.8903,185.0469 342.4841,184.7813 Q343.0778,184.5 343.7028,183.9219 L343.7028,186.6406 Z " fill="#000000"/><text fill="#000000" font-family="sans-serif" font-size="14" lengthAdjust="spacing" textLength="53.2041" x="358.1194" y="185.8467">Usuario</text><line style="stroke:#181818;stroke-width:0.5;" x1="311.5" x2="428.5576" y1="197" y2="197"/><text fill="#000000" font-family="sans-serif" font-size="14" lengthAdjust="spacing" textLength="54.332" x="316.5" y="213.9951">nombre</text><text fill="#000000" font-family="sans-serif" font-size="14" lengthAdjust="spacing" textLength="107.0576" x="316.5" y="230.292">controlParental</text><line style="stroke:#181818;stroke-width:0.5;" x1="311.5" x2="428.5576" y1="237.5938" y2="237.5938"/></g><!--class Recomendaciones--><g id="elem_Recomendaciones"><rect codeLine="11" fill="#F1F1F1" height="80.5938" id="Recomendaciones" rx="2.5" ry="2.5" style="stroke:#181818;stroke-width:0.5;" width="160.126" x="7" y="323"/><ellipse cx="22" cy="339" fill="#ADD1B2" rx="11" ry="11" style="stroke:#181818;stroke-width:1.0;"/><path d="M24.9688,344.6406 Q24.3906,344.9375 23.75,345.0781 Q23.1094,345.2344 22.4063,345.2344 Q19.9063,345.2344 18.5781,343.5938 Q17.2656,341.9375 17.2656,338.8125 Q17.2656,335.6875 18.5781,334.0313 Q19.9063,332.375 22.4063,332.375 Q23.1094,332.375 23.75,332.5313 Q24.4063,332.6875 24.9688,332.9844 L24.9688,335.7031 Q24.3438,335.125 23.75,334.8594 Q23.1563,334.5781 22.5313,334.5781 Q21.1875,334.5781 20.5,335.6563 Q19.8125,336.7188 19.8125,338.8125 Q19.8125,340.9063 20.5,341.9844 Q21.1875,343.0469 22.5313,343.0469 Q23.1563,343.0469 23.75,342.7813 Q24.3438,342.5 24.9688,341.9219 L24.9688,344.6406 Z " fill="#000000"/><text fill="#000000" font-family="sans-serif" font-size="14" lengthAdjust="spacing" textLength="128.126" x="36" y="343.8467">Recomendaciones</text><line style="stroke:#181818;stroke-width:0.5;" x1="8" x2="166.126" y1="355" y2="355"/><text fill="#000000" font-family="sans-serif" font-size="14" lengthAdjust="spacing" textLength="95.3613" x="13" y="371.9951">listaDeVideos</text><text fill="#000000" font-family="sans-serif" font-size="14" lengthAdjust="spacing" textLength="66.0557" x="13" y="388.292">categor&#237;a</text><line style="stroke:#181818;stroke-width:0.5;" x1="8" x2="166.126" y1="395.5938" y2="395.5938"/></g><!--class Buscador--><g id="elem_Buscador"><rect codeLine="16" fill="#F1F1F1" height="64.2969" id="Buscador" rx="2.5" ry="2.5" style="stroke:#181818;stroke-width:0.5;" width="97.2559" x="202.5" y="331.5"/><ellipse cx="217.5" cy="347.5" fill="#ADD1B2" rx="11" ry="11" style="stroke:#181818;stroke-width:1.0;"/><path d="M220.4688,353.1406 Q219.8906,353.4375 219.25,353.5781 Q218.6094,353.7344 217.9063,353.7344 Q215.4063,353.7344 214.0781,352.0938 Q212.7656,350.4375 212.7656,347.3125 Q212.7656,344.1875 214.0781,342.5313 Q215.4063,340.875 217.9063,340.875 Q218.6094,340.875 219.25,341.0313 Q219.9063,341.1875 220.4688,341.4844 L220.4688,344.2031 Q219.8438,343.625 219.25,343.3594 Q218.6563,343.0781 218.0313,343.0781 Q216.6875,343.0781 216,344.1563 Q215.3125,345.2188 215.3125,347.3125 Q215.3125,349.4063 216,350.4844 Q216.6875,351.5469 218.0313,351.5469 Q218.6563,351.5469 219.25,351.2813 Q219.8438,351 220.4688,350.4219 L220.4688,353.1406 Z " fill="#000000"/><text fill="#000000" font-family="sans-serif" font-size="14" lengthAdjust="spacing" textLength="65.2559" x="231.5" y="352.3467">Buscador</text><line style="stroke:#181818;stroke-width:0.5;" x1="203.5" x2="298.7559" y1="363.5" y2="363.5"/><text fill="#000000" font-family="sans-serif" font-size="14" lengthAdjust="spacing" textLength="68.8926" x="208.5" y="380.4951">b&#250;squeda</text><line style="stroke:#181818;stroke-width:0.5;" x1="203.5" x2="298.7559" y1="387.7969" y2="387.7969"/></g><!--class Video--><g id="elem_Video"><rect codeLine="20" fill="#F1F1F1" height="96.8906" id="Video" rx="2.5" ry="2.5" style="stroke:#181818;stroke-width:0.5;" width="84.0166" x="282" y="481"/><ellipse cx="302.618" cy="497" fill="#ADD1B2" rx="11" ry="11" style="stroke:#181818;stroke-width:1.0;"/><path d="M305.5867,502.6406 Q305.0086,502.9375 304.368,503.0781 Q303.7273,503.2344 303.0242,503.2344 Q300.5242,503.2344 299.1961,501.5938 Q297.8836,499.9375 297.8836,496.8125 Q297.8836,493.6875 299.1961,492.0313 Q300.5242,490.375 303.0242,490.375 Q303.7273,490.375 304.368,490.5313 Q305.0242,490.6875 305.5867,490.9844 L305.5867,493.7031 Q304.9617,493.125 304.368,492.8594 Q303.7742,492.5781 303.1492,492.5781 Q301.8055,492.5781 301.118,493.6563 Q300.4305,494.7188 300.4305,496.8125 Q300.4305,498.9063 301.118,499.9844 Q301.8055,501.0469 303.1492,501.0469 Q303.7742,501.0469 304.368,500.7813 Q304.9617,500.5 305.5867,499.9219 L305.5867,502.6406 Z " fill="#000000"/><text fill="#000000" font-family="sans-serif" font-size="14" lengthAdjust="spacing" textLength="39.5322" x="317.8664" y="501.8467">Video</text><line style="stroke:#181818;stroke-width:0.5;" x1="283" x2="365.0166" y1="513" y2="513"/><text fill="#000000" font-family="sans-serif" font-size="14" lengthAdjust="spacing" textLength="72.0166" x="288" y="529.9951">resoluci&#243;n</text><text fill="#000000" font-family="sans-serif" font-size="14" lengthAdjust="spacing" textLength="54.332" x="288" y="546.292">nombre</text><text fill="#000000" font-family="sans-serif" font-size="14" lengthAdjust="spacing" textLength="26.8311" x="288" y="562.5889">tipo</text><line style="stroke:#181818;stroke-width:0.5;" x1="283" x2="365.0166" y1="569.8906" y2="569.8906"/></g><!--class PistaDeAudio--><g id="elem_PistaDeAudio"><rect codeLine="26" fill="#F1F1F1" height="80.5938" id="PistaDeAudio" rx="2.5" ry="2.5" style="stroke:#181818;stroke-width:0.5;" width="124.8799" x="112.5" y="671"/><ellipse cx="127.5" cy="687" fill="#ADD1B2" rx="11" ry="11" style="stroke:#181818;stroke-width:1.0;"/><path d="M130.4688,692.6406 Q129.8906,692.9375 129.25,693.0781 Q128.6094,693.2344 127.9063,693.2344 Q125.4063,693.2344 124.0781,691.5938 Q122.7656,689.9375 122.7656,686.8125 Q122.7656,683.6875 124.0781,682.0313 Q125.4063,680.375 127.9063,680.375 Q128.6094,680.375 129.25,680.5313 Q129.9063,680.6875 130.4688,680.9844 L130.4688,683.7031 Q129.8438,683.125 129.25,682.8594 Q128.6563,682.5781 128.0313,682.5781 Q126.6875,682.5781 126,683.6563 Q125.3125,684.7188 125.3125,686.8125 Q125.3125,688.9063 126,689.9844 Q126.6875,691.0469 128.0313,691.0469 Q128.6563,691.0469 129.25,690.7813 Q129.8438,690.5 130.4688,689.9219 L130.4688,692.6406 Z " fill="#000000"/><text fill="#000000" font-family="sans-serif" font-size="14" lengthAdjust="spacing" textLength="92.8799" x="141.5" y="691.8467">PistaDeAudio</text><line style="stroke:#181818;stroke-width:0.5;" x1="113.5" x2="236.3799" y1="703" y2="703"/><text fill="#000000" font-family="sans-serif" font-size="14" lengthAdjust="spacing" textLength="47.4482" x="118.5" y="719.9951">idioma</text><text fill="#000000" font-family="sans-serif" font-size="14" lengthAdjust="spacing" textLength="50.4082" x="118.5" y="736.292">calidad</text><line style="stroke:#181818;stroke-width:0.5;" x1="113.5" x2="236.3799" y1="743.5938" y2="743.5938"/></g><!--class Subt?tulos--><g id="elem_Subt&#237;tulos"><rect codeLine="31" fill="#F1F1F1" height="113.1875" id="Subt&#237;tulos" rx="2.5" ry="2.5" style="stroke:#181818;stroke-width:0.5;" width="102.1367" x="273" y="655"/><ellipse cx="288" cy="671" fill="#ADD1B2" rx="11" ry="11" style="stroke:#181818;stroke-width:1.0;"/><path d="M290.9688,676.6406 Q290.3906,676.9375 289.75,677.0781 Q289.1094,677.2344 288.4063,677.2344 Q285.9063,677.2344 284.5781,675.5938 Q283.2656,673.9375 283.2656,670.8125 Q283.2656,667.6875 284.5781,666.0313 Q285.9063,664.375 288.4063,664.375 Q289.1094,664.375 289.75,664.5313 Q290.4063,664.6875 290.9688,664.9844 L290.9688,667.7031 Q290.3438,667.125 289.75,666.8594 Q289.1563,666.5781 288.5313,666.5781 Q287.1875,666.5781 286.5,667.6563 Q285.8125,668.7188 285.8125,670.8125 Q285.8125,672.9063 286.5,673.9844 Q287.1875,675.0469 288.5313,675.0469 Q289.1563,675.0469 289.75,674.7813 Q290.3438,674.5 290.9688,673.9219 L290.9688,676.6406 Z " fill="#000000"/><text fill="#000000" font-family="sans-serif" font-size="14" lengthAdjust="spacing" textLength="70.1367" x="302" y="675.8467">Subt&#237;tulos</text><line style="stroke:#181818;stroke-width:0.5;" x1="274" x2="374.1367" y1="687" y2="687"/><text fill="#000000" font-family="sans-serif" font-size="14" lengthAdjust="spacing" textLength="47.4482" x="279" y="703.9951">idioma</text><text fill="#000000" font-family="sans-serif" font-size="14" lengthAdjust="spacing" textLength="34.4736" x="279" y="720.292">color</text><text fill="#000000" font-family="sans-serif" font-size="14" lengthAdjust="spacing" textLength="53.7236" x="279" y="736.5889">tama&#241;o</text><text fill="#000000" font-family="sans-serif" font-size="14" lengthAdjust="spacing" textLength="45.3906" x="279" y="752.8857">fuente</text><line style="stroke:#181818;stroke-width:0.5;" x1="274" x2="374.1367" y1="760.1875" y2="760.1875"/></g><!--class Streaming--><g id="elem_Streaming"><rect codeLine="38" fill="#F1F1F1" height="64.2969" id="Streaming" rx="2.5" ry="2.5" style="stroke:#181818;stroke-width:0.5;" width="104.6113" x="473.5" y="331.5"/><ellipse cx="488.5" cy="347.5" fill="#ADD1B2" rx="11" ry="11" style="stroke:#181818;stroke-width:1.0;"/><path d="M491.4688,353.1406 Q490.8906,353.4375 490.25,353.5781 Q489.6094,353.7344 488.9063,353.7344 Q486.4063,353.7344 485.0781,352.0938 Q483.7656,350.4375 483.7656,347.3125 Q483.7656,344.1875 485.0781,342.5313 Q486.4063,340.875 488.9063,340.875 Q489.6094,340.875 490.25,341.0313 Q490.9063,341.1875 491.4688,341.4844 L491.4688,344.2031 Q490.8438,343.625 490.25,343.3594 Q489.6563,343.0781 489.0313,343.0781 Q487.6875,343.0781 487,344.1563 Q486.3125,345.2188 486.3125,347.3125 Q486.3125,349.4063 487,350.4844 Q487.6875,351.5469 489.0313,351.5469 Q489.6563,351.5469 490.25,351.2813 Q490.8438,351 491.4688,350.4219 L491.4688,353.1406 Z " fill="#000000"/><text fill="#000000" font-family="sans-serif" font-size="14" lengthAdjust="spacing" textLength="72.6113" x="502.5" y="352.3467">Streaming</text><line style="stroke:#181818;stroke-width:0.5;" x1="474.5" x2="577.1113" y1="363.5" y2="363.5"/><text fill="#000000" font-family="sans-serif" font-size="14" lengthAdjust="spacing" textLength="73.3496" x="479.5" y="380.4951">categorias</text><line style="stroke:#181818;stroke-width:0.5;" x1="474.5" x2="577.1113" y1="387.7969" y2="387.7969"/></g><!--class Watchlist--><g id="elem_Watchlist"><rect codeLine="42" fill="#F1F1F1" height="64.2969" id="Watchlist" rx="2.5" ry="2.5" style="stroke:#181818;stroke-width:0.5;" width="107.3613" x="613.5" y="331.5"/><ellipse cx="633.1428" cy="347.5" fill="#ADD1B2" rx="11" ry="11" style="stroke:#181818;stroke-width:1.0;"/><path d="M636.1116,353.1406 Q635.5334,353.4375 634.8928,353.5781 Q634.2522,353.7344 633.5491,353.7344 Q631.0491,353.7344 629.7209,352.0938 Q628.4084,350.4375 628.4084,347.3125 Q628.4084,344.1875 629.7209,342.5313 Q631.0491,340.875 633.5491,340.875 Q634.2522,340.875 634.8928,341.0313 Q635.5491,341.1875 636.1116,341.4844 L636.1116,344.2031 Q635.4866,343.625 634.8928,343.3594 Q634.2991,343.0781 633.6741,343.0781 Q632.3303,343.0781 631.6428,344.1563 Q630.9553,345.2188 630.9553,347.3125 Q630.9553,349.4063 631.6428,350.4844 Q632.3303,351.5469 633.6741,351.5469 Q634.2991,351.5469 634.8928,351.2813 Q635.4866,351 636.1116,350.4219 L636.1116,353.1406 Z " fill="#000000"/><text fill="#000000" font-family="sans-serif" font-size="14" lengthAdjust="spacing" textLength="65.0439" x="648.1746" y="352.3467">Watchlist</text><line style="stroke:#181818;stroke-width:0.5;" x1="614.5" x2="719.8613" y1="363.5" y2="363.5"/><text fill="#000000" font-family="sans-serif" font-size="14" lengthAdjust="spacing" textLength="95.3613" x="619.5" y="380.4951">listaDeVideos</text><line style="stroke:#181818;stroke-width:0.5;" x1="614.5" x2="719.8613" y1="387.7969" y2="387.7969"/></g><!--class Suscripci?n--><g id="elem_Suscripci&#243;n"><rect codeLine="46" fill="#F1F1F1" height="80.5938" id="Suscripci&#243;n" rx="2.5" ry="2.5" style="stroke:#181818;stroke-width:0.5;" width="168.6934" x="410.5" y="671"/><ellipse cx="450.8731" cy="687" fill="#ADD1B2" rx="11" ry="11" style="stroke:#181818;stroke-width:1.0;"/><path d="M453.8419,692.6406 Q453.2638,692.9375 452.6231,693.0781 Q451.9825,693.2344 451.2794,693.2344 Q448.7794,693.2344 447.4513,691.5938 Q446.1388,689.9375 446.1388,686.8125 Q446.1388,683.6875 447.4513,682.0313 Q448.7794,680.375 451.2794,680.375 Q451.9825,680.375 452.6231,680.5313 Q453.2794,680.6875 453.8419,680.9844 L453.8419,683.7031 Q453.2169,683.125 452.6231,682.8594 Q452.0294,682.5781 451.4044,682.5781 Q450.0606,682.5781 449.3731,683.6563 Q448.6856,684.7188 448.6856,686.8125 Q448.6856,688.9063 449.3731,689.9844 Q450.0606,691.0469 451.4044,691.0469 Q452.0294,691.0469 452.6231,690.7813 Q453.2169,690.5 453.8419,689.9219 L453.8419,692.6406 Z " fill="#000000"/><text fill="#000000" font-family="sans-serif" font-size="14" lengthAdjust="spacing" textLength="80.3086" x="470.5116" y="691.8467">Suscripci&#243;n</text><line style="stroke:#181818;stroke-width:0.5;" x1="411.5" x2="578.1934" y1="703" y2="703"/><text fill="#000000" font-family="sans-serif" font-size="14" lengthAdjust="spacing" textLength="30.2285" x="416.5" y="719.9951">plan</text><text fill="#000000" font-family="sans-serif" font-size="14" lengthAdjust="spacing" textLength="156.6934" x="416.5" y="736.292">dispositivosPermitidos</text><line style="stroke:#181818;stroke-width:0.5;" x1="411.5" x2="578.1934" y1="743.5938" y2="743.5938"/></g><!--link InicioDeSesi?n to Usuario--><g id="link_InicioDeSesi&#243;n_Usuario"><path codeLine="51" d="M370,88.27 C370,111.74 370,135.35 370,158.8 " fill="none" id="InicioDeSesi&#243;n-to-Usuario" style="stroke:#181818;stroke-width:1.0;"/><polygon fill="#181818" points="370,164.8,374,155.8,370,159.8,366,155.8,370,164.8" style="stroke:#181818;stroke-width:1.0;"/><text fill="#000000" font-family="sans-serif" font-size="13" lengthAdjust="spacing" textLength="79.6694" x="371" y="131.0669">inicia sesi&#243;n</text></g><!--link Usuario to Recomendaciones--><g id="link_Usuario_Recomendaciones"><path codeLine="52" d="M310.46,236.94 C287.4,248.91 260.86,262.89 237,276 C209.73,290.98 185.1797,304.9789 159.4297,319.9189 " fill="none" id="Usuario-to-Recomendaciones" style="stroke:#181818;stroke-width:1.0;"/><polygon fill="#181818" points="154.24,322.93,164.032,321.8732,158.5648,320.4208,160.0172,314.9536,154.24,322.93" style="stroke:#181818;stroke-width:1.0;"/><text fill="#000000" font-family="sans-serif" font-size="13" lengthAdjust="spacing" textLength="46.5093" x="238" y="289.0669">accede</text></g><!--link Usuario to Watchlist--><g id="link_Usuario_Watchlist"><path codeLine="53" d="M429.66,231.43 C458.55,244.01 493.49,259.96 524,276 C556.36,293.01 586.4284,311.0398 613.7784,328.2098 " fill="none" id="Usuario-to-Watchlist" style="stroke:#181818;stroke-width:1.0;"/><polygon fill="#181818" points="618.86,331.4,613.3644,323.227,614.6253,328.7415,609.1108,330.0025,618.86,331.4" style="stroke:#181818;stroke-width:1.0;"/><text fill="#000000" font-family="sans-serif" font-size="13" lengthAdjust="spacing" textLength="38.9619" x="554" y="289.0669">utiliza</text></g><!--link Usuario to Streaming--><g id="link_Usuario_Streaming"><path codeLine="54" d="M409.77,246.27 C436.22,272.72 470.46,306.96 494.91,331.41 " fill="none" id="Usuario-Streaming" style="stroke:#181818;stroke-width:1.0;"/><text fill="#000000" font-family="sans-serif" font-size="13" lengthAdjust="spacing" textLength="61.3311" x="454" y="289.0669">configura</text></g><!--link Usuario to Buscador--><g id="link_Usuario_Buscador"><path codeLine="55" d="M329.76,246.01 C320.88,255.5 311.8,265.84 304,276 C290.6,293.46 280.6417,309.2991 270.8917,326.2491 " fill="none" id="Usuario-to-Buscador" style="stroke:#181818;stroke-width:1.0;"/><polygon fill="#181818" points="267.9,331.45,275.8548,325.6431,270.3931,327.1159,268.9202,321.6541,267.9,331.45" style="stroke:#181818;stroke-width:1.0;"/><text fill="#000000" font-family="sans-serif" font-size="13" lengthAdjust="spacing" textLength="38.9619" x="305" y="289.0669">utiliza</text></g><!--link Usuario to Video--><g id="link_Usuario_Video"><path codeLine="56" d="M368.99,246.25 C367.17,294.93 362.08,379.71 348,451 C346.06,460.81 345.0509,465.3861 342.1509,475.1961 " fill="none" id="Usuario-to-Video" style="stroke:#181818;stroke-width:1.0;"/><polygon fill="#181818" points="340.45,480.95,346.8373,473.4532,341.8674,476.1551,339.1655,471.1853,340.45,480.95" style="stroke:#181818;stroke-width:1.0;"/><text fill="#000000" font-family="sans-serif" font-size="13" lengthAdjust="spacing" textLength="66.5298" x="366" y="368.0669">reproduce</text></g><!--link Recomendaciones to Video--><g id="link_Recomendaciones_Video"><path codeLine="58" d="M144.37,404.2 C186.7,433.49 238.4262,469.2857 276.7062,495.7757 " fill="none" id="Recomendaciones-to-Video" style="stroke:#181818;stroke-width:1.0;"/><polygon fill="#181818" points="281.64,499.19,276.5154,490.7794,277.5285,496.3448,271.9631,497.3579,281.64,499.19" style="stroke:#181818;stroke-width:1.0;"/><text fill="#000000" font-family="sans-serif" font-size="13" lengthAdjust="spacing" textLength="46.541" x="207" y="447.0669">incluye</text></g><!--link Watchlist to Video--><g id="link_Watchlist_Video"><path codeLine="59" d="M613.35,394.93 C607.53,398.05 601.66,401.13 596,404 C516.07,444.45 425.8647,484.533 371.9247,507.923 " fill="none" id="Watchlist-to-Video" style="stroke:#181818;stroke-width:1.0;"/><polygon fill="#181818" points="366.42,510.31,376.2685,510.3993,371.0073,508.3208,373.0858,503.0596,366.42,510.31" style="stroke:#181818;stroke-width:1.0;"/><text fill="#000000" font-family="sans-serif" font-size="13" lengthAdjust="spacing" textLength="56.2847" x="531" y="447.0669">contiene</text></g><!--link Buscador to Video--><g id="link_Buscador_Video"><path codeLine="60" d="M257.81,395.65 C262.02,412.44 268.13,433.28 276,451 C280.43,460.98 282.8935,466.0528 288.6135,475.6728 " fill="none" id="Buscador-to-Video" style="stroke:#181818;stroke-width:1.0;"/><polygon fill="#181818" points="291.68,480.83,290.5185,471.0499,289.1246,476.5323,283.6422,475.1385,291.68,480.83" style="stroke:#181818;stroke-width:1.0;"/><text fill="#000000" font-family="sans-serif" font-size="13" lengthAdjust="spacing" textLength="66.2695" x="277" y="447.0669">encuentra</text></g><!--link Video to PistaDeAudio--><g id="link_Video_PistaDeAudio"><path codeLine="62" d="M284.46,578.26 C260.58,607.11 230.5,643.45 207.92,670.73 " fill="none" id="Video-PistaDeAudio" style="stroke:#181818;stroke-width:1.0;"/><text fill="#000000" font-family="sans-serif" font-size="13" lengthAdjust="spacing" textLength="32.9443" x="260" y="621.0669">tiene</text></g><!--link Video to Subt?tulos--><g id="link_Video_Subt&#237;tulos"><path codeLine="63" d="M324,578.26 C324,601.8 324,630.33 324,654.85 " fill="none" id="Video-Subt&#237;tulos" style="stroke:#181818;stroke-width:1.0;"/><text fill="#000000" font-family="sans-serif" font-size="13" lengthAdjust="spacing" textLength="32.9443" x="325" y="621.0669">tiene</text></g><!--link Video to Suscripci?n--><g id="link_Video_Suscripci&#243;n"><path codeLine="64" d="M366.27,574.99 C394.16,604.35 426.2478,638.1297 453.1578,666.4597 " fill="none" id="Video-to-Suscripci&#243;n" style="stroke:#181818;stroke-width:1.0;"/><polygon fill="#181818" points="457.29,670.81,453.9919,661.5298,453.8465,667.1848,448.1915,667.0394,457.29,670.81" style="stroke:#181818;stroke-width:1.0;"/><text fill="#000000" font-family="sans-serif" font-size="13" lengthAdjust="spacing" textLength="56.9893" x="411" y="621.0669">depende</text></g><!--SRC=[RL8nRiCm3Dpr2dsW7_0Ge4MMRa63jZCZCIa1MNH5gK1Rz4aPWcvT_R7AaMChHZm9lZlooADn8A8VFHdYDMvHgF_r-blf_1aE0Nby-XX0i3-1-b7Ad5NFaY0GZspFxIxWp6QtWO0-WfiLJsYuHMyXT_CeezAHH5ZZ2rbaAGKWue53VwowFIGnO3cCebt_9-y9RSKu5nZXWC8kcM6QfRj87S-YJMb-d-mq2ULd2wCHHnRiJD-cNUoFCJcM6sns74eFQA4_bTtjKzu2LYLYG6Z97ovhBiCIoCnvXMZUXhtSN57bHaoWpbIXTGxAn9QaOw587omR36r-sQ9TfdrtjvgoR3GDA6WfeBe00saPNwF16BHuHPgjDpf5SlG55LvDtmntigT32d1LO0hwbdurfjpaXBl0DXbKQkchff4tBdsYcctLw72fX1xLrBH6qPiXk-nFbL_P_zMzDBge9xG-ZoMukewhqHQxR1h_0G00]--></g></svg>