<svg xmlns="http://www.w3.org/2000/svg" xmlns:xlink="http://www.w3.org/1999/xlink" contentStyleType="text/css" height="794px" preserveAspectRatio="none" style="width:777px;height:794px;background:#FFFFFF;" version="1.1" viewBox="0 0 777 794" width="777px" zoomAndPan="magnify"><defs/><g><ellipse cx="447.84" cy="16" fill="#222222" rx="10" ry="10" style="stroke:#222222;stroke-width:1.0;"/><g id="Inicio"><rect fill="#F1F1F1" height="50" rx="12.5" ry="12.5" style="stroke:#181818;stroke-width:0.5;" width="57.0439" x="419.34" y="103"/><line style="stroke:#181818;stroke-width:0.5;" x1="419.34" x2="476.3839" y1="129.2969" y2="129.2969"/><text fill="#000000" font-family="sans-serif" font-size="14" lengthAdjust="spacing" textLength="37.0439" x="429.34" y="120.9951">Inicio</text></g><g id="Registro"><rect fill="#F1F1F1" height="50" rx="12.5" ry="12.5" style="stroke:#181818;stroke-width:0.5;" width="78.2217" x="256.84" y="230"/><line style="stroke:#181818;stroke-width:0.5;" x1="256.84" x2="335.0617" y1="256.2969" y2="256.2969"/><text fill="#000000" font-family="sans-serif" font-size="14" lengthAdjust="spacing" textLength="58.2217" x="266.84" y="247.9951">Registro</text></g><g id="InicioDeSesion"><rect fill="#F1F1F1" height="50" rx="12.5" ry="12.5" style="stroke:#181818;stroke-width:0.5;" width="122.5596" x="234.34" y="357"/><line style="stroke:#181818;stroke-width:0.5;" x1="234.34" x2="356.8996" y1="383.2969" y2="383.2969"/><text fill="#000000" font-family="sans-serif" font-size="14" lengthAdjust="spacing" textLength="102.5596" x="244.34" y="374.9951">InicioDeSesion</text></g><g id="ErrorSesion"><rect fill="#F1F1F1" height="50" rx="12.5" ry="12.5" style="stroke:#181818;stroke-width:0.5;" width="100.8008" x="111.34" y="484"/><line style="stroke:#181818;stroke-width:0.5;" x1="111.34" x2="212.1408" y1="510.2969" y2="510.2969"/><text fill="#000000" font-family="sans-serif" font-size="14" lengthAdjust="spacing" textLength="80.8008" x="121.34" y="501.9951">ErrorSesion</text></g><g id="AccesoContenidos"><rect fill="#F1F1F1" height="50.2656" rx="12.5" ry="12.5" style="stroke:#181818;stroke-width:0.5;" width="148.2695" x="299.84" y="484"/><line style="stroke:#181818;stroke-width:0.5;" x1="299.84" x2="448.1095" y1="510.2969" y2="510.2969"/><text fill="#000000" font-family="sans-serif" font-size="14" lengthAdjust="spacing" textLength="128.2695" x="309.84" y="501.9951">AccesoContenidos</text><text fill="#000000" font-family="sans-serif" font-size="12" lengthAdjust="spacing" textLength="88.4883" x="304.84" y="526.4355">Men&#250; principal</text></g><g id="Reproduccion"><rect fill="#F1F1F1" height="50.2656" rx="12.5" ry="12.5" style="stroke:#181818;stroke-width:0.5;" width="147.3066" x="38.34" y="611"/><line style="stroke:#181818;stroke-width:0.5;" x1="38.34" x2="185.6466" y1="637.2969" y2="637.2969"/><text fill="#000000" font-family="sans-serif" font-size="14" lengthAdjust="spacing" textLength="96.0313" x="63.9777" y="628.9951">Reproduccion</text><text fill="#000000" font-family="sans-serif" font-size="12" lengthAdjust="spacing" textLength="127.3066" x="43.34" y="653.4355">Reproduciendo video</text></g><g id="Configuracion"><rect fill="#F1F1F1" height="50" rx="12.5" ry="12.5" style="stroke:#181818;stroke-width:0.5;" width="117.1523" x="315.34" y="611"/><line style="stroke:#181818;stroke-width:0.5;" x1="315.34" x2="432.4923" y1="637.2969" y2="637.2969"/><text fill="#000000" font-family="sans-serif" font-size="14" lengthAdjust="spacing" textLength="97.1523" x="325.34" y="628.9951">Configuracion</text></g><g id="CerrarSesion"><rect fill="#F1F1F1" height="50" rx="12.5" ry="12.5" style="stroke:#181818;stroke-width:0.5;" width="110.3574" x="553.84" y="611"/><line style="stroke:#181818;stroke-width:0.5;" x1="553.84" x2="664.1974" y1="637.2969" y2="637.2969"/><text fill="#000000" font-family="sans-serif" font-size="14" lengthAdjust="spacing" textLength="90.3574" x="563.84" y="628.9951">CerrarSesion</text></g><g id="Pausar"><rect fill="#F1F1F1" height="50" rx="12.5" ry="12.5" style="stroke:#181818;stroke-width:0.5;" width="67.5234" x="77.84" y="738"/><line style="stroke:#181818;stroke-width:0.5;" x1="77.84" x2="145.3634" y1="764.2969" y2="764.2969"/><text fill="#000000" font-family="sans-serif" font-size="14" lengthAdjust="spacing" textLength="47.5234" x="87.84" y="755.9951">Pausar</text></g><!--link *start* to Inicio--><g id="link_*start*_Inicio"><path d="M447.84,26 C447.84,42.63 447.84,72.66 447.84,96.87 " fill="none" id="*start*-to-Inicio" style="stroke:#181818;stroke-width:1.0;"/><polygon fill="#181818" points="447.84,102.87,451.84,93.87,447.84,97.87,443.84,93.87,447.84,102.87" style="stroke:#181818;stroke-width:1.0;"/><text fill="#000000" font-family="sans-serif" font-size="13" lengthAdjust="spacing" textLength="116.7969" x="448.84" y="69.0669">Abrir la aplicaci&#243;n</text></g><!--link Inicio to Registro--><g id="link_Inicio_Registro"><path d="M419.16,129.63 C382.84,132.16 321.56,142.58 292.84,183 C283.33,196.38 283.2084,209.1651 286.5284,223.9851 " fill="none" id="Inicio-to-Registro" style="stroke:#181818;stroke-width:1.0;"/><polygon fill="#181818" points="287.84,229.84,289.7758,220.1833,286.747,224.9609,281.9693,221.9321,287.84,229.84" style="stroke:#181818;stroke-width:1.0;"/><text fill="#000000" font-family="sans-serif" font-size="13" lengthAdjust="spacing" textLength="127.3149" x="293.84" y="196.0669">Elegir "Registrarse"</text></g><!--link Inicio to InicioDeSesion--><g id="link_Inicio_InicioDeSesion"><path d="M449.94,153.12 C452.15,193.46 450.84,275.27 410.84,327 C397.48,344.27 382.802,353.9609 363.012,362.1709 " fill="none" id="Inicio-to-InicioDeSesion" style="stroke:#181818;stroke-width:1.0;"/><polygon fill="#181818" points="357.47,364.47,367.3158,364.716,362.0883,362.5541,364.2503,357.3266,357.47,364.47" style="stroke:#181818;stroke-width:1.0;"/><text fill="#000000" font-family="sans-serif" font-size="13" lengthAdjust="spacing" textLength="138.3599" x="447.84" y="259.5669">Elegir "Iniciar sesi&#243;n"</text></g><!--link Registro to InicioDeSesion--><g id="link_Registro_InicioDeSesion"><path d="M295.84,280.1 C295.84,302.24 295.84,328.86 295.84,350.97 " fill="none" id="Registro-to-InicioDeSesion" style="stroke:#181818;stroke-width:1.0;"/><polygon fill="#181818" points="295.84,356.97,299.84,347.97,295.84,351.97,291.84,347.97,295.84,356.97" style="stroke:#181818;stroke-width:1.0;"/><text fill="#000000" font-family="sans-serif" font-size="13" lengthAdjust="spacing" textLength="105.2759" x="296.84" y="323.0669">Registro exitoso</text></g><!--link InicioDeSesion to ErrorSesion--><g id="link_InicioDeSesion_ErrorSesion"><path d="M234.16,390.83 C180.1,399.11 107.46,414.17 89.84,437 C76.75,453.96 87.4617,467.6064 107.5217,480.6664 " fill="none" id="InicioDeSesion-to-ErrorSesion" style="stroke:#181818;stroke-width:1.0;"/><polygon fill="#181818" points="112.55,483.94,107.19,475.6774,108.3598,481.212,102.8252,482.3817,112.55,483.94" style="stroke:#181818;stroke-width:1.0;"/><text fill="#000000" font-family="sans-serif" font-size="13" lengthAdjust="spacing" textLength="145.8755" x="90.84" y="450.0669">Credenciales inv&#225;lidas</text></g><!--link ErrorSesion to InicioDeSesion--><g id="link_ErrorSesion_InicioDeSesion"><path d="M202.24,483.9 C215.22,475.27 229.23,464.94 240.84,454 C255.71,439.99 266.3124,426.6406 276.4924,412.1406 " fill="none" id="ErrorSesion-to-InicioDeSesion" style="stroke:#181818;stroke-width:1.0;"/><polygon fill="#181818" points="279.94,407.23,271.4949,412.2975,277.067,411.3222,278.0424,416.8943,279.94,407.23" style="stroke:#181818;stroke-width:1.0;"/><text fill="#000000" font-family="sans-serif" font-size="13" lengthAdjust="spacing" textLength="68.6245" x="257.84" y="450.0669">Reintentar</text></g><!--link InicioDeSesion to AccesoContenidos--><g id="link_InicioDeSesion_AccesoContenidos"><path d="M325.52,407.11 C334.66,415.75 344.08,426.07 350.84,437 C359.7,451.33 364.0434,463.587 367.6034,477.917 " fill="none" id="InicioDeSesion-to-AccesoContenidos" style="stroke:#181818;stroke-width:1.0;"/><polygon fill="#181818" points="369.05,483.74,370.7621,474.0411,367.8445,478.8875,362.9981,475.9699,369.05,483.74" style="stroke:#181818;stroke-width:1.0;"/><text fill="#000000" font-family="sans-serif" font-size="13" lengthAdjust="spacing" textLength="97.3667" x="360.84" y="450.0669">Sesi&#243;n iniciada</text></g><!--link AccesoContenidos to Reproduccion--><g id="link_AccesoContenidos_Reproduccion"><path d="M299.51,522.61 C277.13,526.35 252.49,530.4 229.84,534 C185.67,541.01 60.01,530.1 30.84,564 C16.08,581.15 28.1791,594.9409 50.5191,607.8909 " fill="none" id="AccesoContenidos-to-Reproduccion" style="stroke:#181818;stroke-width:1.0;"/><polygon fill="#181818" points="55.71,610.9,49.9297,602.9258,51.3842,608.3925,45.9176,609.847,55.71,610.9" style="stroke:#181818;stroke-width:1.0;"/><text fill="#000000" font-family="sans-serif" font-size="13" lengthAdjust="spacing" textLength="114.9116" x="31.84" y="577.0669">Seleccionar video</text></g><!--link Reproduccion to AccesoContenidos--><g id="link_Reproduccion_AccesoContenidos"><path d="M143.81,610.71 C164.43,595.83 192.28,577.18 218.84,564 C244.37,551.34 267.9081,542.228 294.0581,533.508 " fill="none" id="Reproduccion-to-AccesoContenidos" style="stroke:#181818;stroke-width:1.0;"/><polygon fill="#181818" points="299.75,531.61,289.9468,530.6624,295.0068,533.1917,292.4775,538.2516,299.75,531.61" style="stroke:#181818;stroke-width:1.0;"/><text fill="#000000" font-family="sans-serif" font-size="13" lengthAdjust="spacing" textLength="142.3018" x="219.84" y="577.0669">Detener reproducci&#243;n</text></g><!--link AccesoContenidos to Configuracion--><g id="link_AccesoContenidos_Configuracion"><path d="M371.97,534.31 C371.13,548.02 370.41,565.46 370.84,581 C371.11,590.76 371.3065,595.5104 371.8565,604.8304 " fill="none" id="AccesoContenidos-to-Configuracion" style="stroke:#181818;stroke-width:1.0;"/><polygon fill="#181818" points="372.21,610.82,375.6729,601.6,371.9154,605.8287,367.6868,602.0713,372.21,610.82" style="stroke:#181818;stroke-width:1.0;"/><text fill="#000000" font-family="sans-serif" font-size="13" lengthAdjust="spacing" textLength="131.3076" x="371.84" y="577.0669">Ajustar preferencias</text></g><!--link AccesoContenidos to CerrarSesion--><g id="link_AccesoContenidos_CerrarSesion"><path d="M442.36,534.11 C463.81,542.58 487.23,552.8 507.84,564 C532.7,577.51 553.9851,592.3499 573.4151,607.0499 " fill="none" id="AccesoContenidos-to-CerrarSesion" style="stroke:#181818;stroke-width:1.0;"/><polygon fill="#181818" points="578.2,610.67,573.436,602.05,574.2126,607.6533,568.6093,608.4298,578.2,610.67" style="stroke:#181818;stroke-width:1.0;"/><text fill="#000000" font-family="sans-serif" font-size="13" lengthAdjust="spacing" textLength="100.1343" x="534.84" y="577.0669">Finalizar sesi&#243;n</text></g><!--link Reproduccion to Pausar--><g id="link_Reproduccion_Pausar"><path d="M51.97,661.08 C39.93,668.79 28.84,678.63 21.84,691 C6,718.97 40.3385,737.8396 71.9985,749.4796 " fill="none" id="Reproduccion-to-Pausar" style="stroke:#181818;stroke-width:1.0;"/><polygon fill="#181818" points="77.63,751.55,70.5631,744.69,72.9371,749.8246,67.8025,752.1986,77.63,751.55" style="stroke:#181818;stroke-width:1.0;"/><text fill="#000000" font-family="sans-serif" font-size="13" lengthAdjust="spacing" textLength="133.7451" x="22.84" y="704.0669">Pausar reproducci&#243;n</text></g><!--link Pausar to Reproduccion--><g id="link_Pausar_Reproduccion"><path d="M140.72,737.83 C148.81,729.33 156.55,719.1 160.84,708 C167.37,691.09 161.021,678.5543 148.031,665.5543 " fill="none" id="Pausar-to-Reproduccion" style="stroke:#181818;stroke-width:1.0;"/><polygon fill="#181818" points="143.79,661.31,147.322,670.5037,147.3242,664.8469,152.981,664.8491,143.79,661.31" style="stroke:#181818;stroke-width:1.0;"/><text fill="#000000" font-family="sans-serif" font-size="13" lengthAdjust="spacing" textLength="63.0386" x="163.84" y="704.0669">Reanudar</text></g><!--link CerrarSesion to Inicio--><g id="link_CerrarSesion_Inicio"><path d="M629.47,610.95 C647.84,587.01 671.84,548.4 671.84,510 C671.84,254 671.84,254 671.84,254 C671.84,165.6 543.1153,139.8714 482.6153,132.4414 " fill="none" id="CerrarSesion-to-Inicio" style="stroke:#181818;stroke-width:1.0;"/><polygon fill="#181818" points="476.66,131.71,485.1053,136.7772,481.6227,132.3195,486.0805,128.8369,476.66,131.71" style="stroke:#181818;stroke-width:1.0;"/><text fill="#000000" font-family="sans-serif" font-size="13" lengthAdjust="spacing" textLength="96.9795" x="672.84" y="386.5669">Sesi&#243;n cerrada</text></g><!--SRC=[TP8zRiCm38LtdKB8M20No530I5AWGu4Y7eCEhCG4B0J9eEoWw6rwXcvTVR5I_b7jnDaeytla8-dZmvjUhn_rioT3GMzqySx4se66of41G-sFLsf89_A0Puer9tRl96Qz6Zu1HrnDqJxSOOcHWfy8kWImZfAG-YkLYoxASXO_gGunZ7uoabHxvi1PicMqwAM9mwZ9NzflHnQYcb9tUf6lqTV0IqqAOp26RKW8sH15KFOpI9CqamMb5g0NzEslhfZ4KWNk5katMt6mZJ6zan8TTh4iwa8Mmx9AdYSwDmo3hFXeehYNPdX2xdOGxoYHvMPvyYVouEZh_onANJaQduJUXi7J34bLNw69KcCp1fo1LF86NrZM3YN6Q-LGRc5H1mJVM3cOcaqq-wt7Avb4MFW3]--></g></svg>
